<?xml version="1.0" standalone="no"?>
<!DOCTYPE svg PUBLIC "-//W3C//DTD SVG 20010904//EN"
 "http://www.w3.org/TR/2001/REC-SVG-20010904/DTD/svg10.dtd">
<svg version="1.0" xmlns="http://www.w3.org/2000/svg"
 width="788.000000pt" height="588.000000pt" viewBox="0 0 788.000000 588.000000"
 preserveAspectRatio="xMidYMid meet">

<g transform="translate(0.000000,588.000000) scale(0.100000,-0.100000)"
fill="#000000" stroke="none">
<path d="M5895 5871 c-287 -55 -402 -107 -441 -198 -12 -28 -12 -38 -1 -65 23
-56 39 -62 156 -66 58 -2 270 -10 471 -18 201 -8 507 -19 680 -24 173 -6 371
-14 440 -20 69 -5 135 -7 147 -4 11 3 23 2 26 -3 7 -11 -10 -37 -93 -144 -36
-46 -72 -93 -80 -106 -8 -12 -62 -84 -121 -160 -105 -138 -270 -356 -533 -703
-77 -102 -196 -259 -265 -350 -448 -589 -917 -1222 -935 -1260 -29 -65 -28
-192 3 -282 13 -40 29 -69 39 -72 23 -8 144 27 212 61 66 34 154 118 178 171
15 33 183 259 417 562 33 42 90 117 127 166 37 49 145 190 240 314 383 501
882 1172 1124 1510 94 132 164 247 170 277 18 96 -38 242 -127 332 -93 93 -14
86 -959 88 -459 0 -853 -2 -875 -6z"/>
<path d="M2270 5705 c-25 -14 -57 -43 -72 -63 l-26 -38 -7 -384 c-3 -212 -2
-540 2 -730 l8 -345 34 -65 c18 -36 47 -87 65 -115 65 -102 177 -274 246 -375
151 -221 202 -318 207 -394 4 -48 1 -57 -64 -166 -61 -101 -115 -186 -173
-271 -10 -14 -59 -88 -110 -165 -51 -76 -124 -183 -162 -236 -37 -53 -68 -99
-68 -102 0 -2 -31 -50 -70 -106 -38 -56 -70 -103 -70 -105 0 -2 -20 -32 -43
-67 -125 -182 -151 -266 -145 -479 4 -138 5 -147 36 -213 28 -58 64 -120 145
-251 7 -10 39 -59 72 -108 33 -49 67 -100 75 -113 8 -13 56 -82 105 -155 50
-72 95 -139 100 -148 6 -9 19 -29 29 -44 10 -15 16 -30 13 -33 -9 -9 -1882 -5
-1885 4 -1 5 114 177 257 383 143 206 283 408 312 449 76 112 356 516 462 668
83 119 145 210 237 342 17 25 110 160 207 300 446 647 453 657 453 745 0 86
-47 241 -76 252 -47 18 -229 -66 -298 -136 -24 -25 -57 -71 -73 -102 -15 -30
-66 -110 -113 -177 -89 -128 -343 -491 -404 -577 -525 -745 -1366 -1982 -1366
-2011 0 -2 -9 -17 -20 -32 -11 -15 -31 -58 -45 -97 -27 -74 -27 -66 13 -185
31 -91 112 -187 192 -231 45 -24 592 -30 2455 -26 1698 3 1803 4 1860 21 85
25 202 89 256 138 86 80 287 353 560 760 231 345 262 417 262 617 0 152 -20
216 -120 380 -75 124 -130 207 -372 566 -415 614 -418 618 -409 733 4 61 30
122 91 211 18 26 37 54 42 63 6 9 58 88 116 175 240 359 299 472 299 577 0 34
5 79 10 101 14 61 13 1159 -1 1204 -30 91 -67 134 -144 167 -75 31 -155 6
-220 -68 -22 -25 -97 -128 -167 -229 -173 -251 -227 -315 -277 -329 -25 -7
-285 -9 -772 -8 -818 3 -757 -2 -830 75 -20 21 -83 102 -140 179 -57 78 -137
187 -177 242 -93 126 -119 145 -197 149 -50 3 -68 -1 -105 -22z m1265 -3671
c9 -4 15 -15 13 -28 -2 -17 -15 -24 -63 -36 -33 -8 -61 -15 -62 -15 -1 -1 11
-66 26 -145 57 -286 76 -474 61 -613 -13 -123 -35 -181 -83 -221 -34 -27 -47
-31 -114 -34 -135 -7 -245 38 -307 125 -25 36 -30 54 -34 124 -4 73 12 296 24
342 3 9 14 17 24 17 17 0 19 -13 22 -192 3 -179 5 -196 25 -229 30 -48 117
-92 194 -97 77 -6 101 1 121 35 42 72 48 334 14 648 -22 200 -33 255 -53 255
-9 0 -33 5 -54 12 -45 13 -54 44 -16 52 12 3 31 7 42 10 25 6 199 -2 220 -10z
m792 -44 c-3 -27 -29 -122 -57 -212 -132 -416 -141 -453 -165 -616 -17 -120
-38 -191 -58 -204 -32 -20 -87 6 -87 42 0 10 -22 64 -49 121 -72 152 -165 419
-231 664 -12 44 -36 111 -52 148 -23 49 -28 71 -20 79 6 6 18 8 26 5 23 -9 77
-124 131 -277 53 -152 120 -330 140 -375 8 -16 34 -75 58 -129 l45 -99 7 49
c19 137 88 357 185 594 28 69 57 148 65 175 20 75 25 85 47 85 19 0 20 -4 15
-50z"/>
</g>
</svg>
